<?xml version="1.0" encoding="utf-8"?>
<!-- Generator: Adobe Illustrator 25.2.3, SVG Export Plug-In . SVG Version: 6.00 Build 0)  -->
<svg version="1.1" id="Capa_1" xmlns="http://www.w3.org/2000/svg" xmlns:xlink="http://www.w3.org/1999/xlink" x="0px" y="0px"
	 viewBox="0 0 200 200" style="enable-background:new 0 0 200 200;" xml:space="preserve">
<style type="text/css">
	.st0{fill:url(#SVGID_1_);}
	.st1{fill:#FFFFFF;}
</style>
<linearGradient id="SVGID_1_" gradientUnits="userSpaceOnUse" x1="36.5839" y1="166.5389" x2="149.386" y2="48.1821">
	<stop  offset="2.004970e-03" style="stop-color:#03101E"/>
	<stop  offset="1" style="stop-color:#0C263D"/>
</linearGradient>
<circle class="st0" cx="100" cy="100" r="97.5"/>
<g>
	<g>
		<polygon class="st1" points="100,77.7 113.9,93.8 121.9,89.9 100,64.4 78,89.9 86.1,93.9 		"/>
		<polygon class="st1" points="154.8,81.2 126.3,95 126.3,95 118.3,98.9 118.3,98.9 100,107.8 87,101.5 87,101.5 85.9,101 
			81.7,98.9 81.7,98.9 73.7,95 73.7,95 45.2,81.2 50.2,135.6 71.5,110.8 63.4,106.9 56.9,114.5 55.2,95.7 63.1,99.6 63.1,99.5 
			65.5,100.7 67.8,101.8 67.8,101.8 75.9,105.7 75.9,105.7 100,117.4 120.3,107.6 136.8,99.5 136.8,99.6 144.8,95.7 143.1,114.5 
			136.5,106.9 128.5,110.8 149.8,135.6 		"/>
	</g>
	<path class="st1" d="M100,0.8C45.2,0.8,0.8,45.2,0.8,100s44.4,99.2,99.2,99.2s99.2-44.4,99.2-99.2S154.8,0.8,100,0.8z M100,189.3
		c-49.3,0-89.3-40-89.3-89.3s40-89.3,89.3-89.3s89.3,40,89.3,89.3S149.3,189.3,100,189.3z"/>
</g>
</svg>
