<?xml version="1.0" encoding="utf-8"?>
<!-- Generator: Adobe Illustrator 25.2.3, SVG Export Plug-In . SVG Version: 6.00 Build 0)  -->
<svg version="1.1" id="Layer_1" xmlns="http://www.w3.org/2000/svg" xmlns:xlink="http://www.w3.org/1999/xlink" x="0px" y="0px"
	 width="17px" height="16px" viewBox="0 0 17 16" style="enable-background:new 0 0 17 16;" xml:space="preserve">
<style type="text/css">
	.st0{fill:#FFFFFF;}
</style>
<path class="st0" d="M16.5,13l-5.3-5l5.3-5c0.7-0.7,0.7-1.8,0-2.5c-0.7-0.7-1.9-0.7-2.6,0l-5.3,5l-5.3-5c-0.7-0.7-1.9-0.7-2.6,0
	c-0.7,0.7-0.7,1.8,0,2.5l5.3,5l-5.3,5c-0.7,0.7-0.7,1.8,0,2.5C0.9,15.8,1.4,16,1.9,16s1-0.2,1.3-0.5l5.3-5l5.3,5
	c0.4,0.3,0.8,0.5,1.3,0.5c0.5,0,1-0.2,1.3-0.5C17.2,14.8,17.2,13.7,16.5,13z"/>
</svg>
