<svg width="1401" height="909" viewBox="0 0 1401 909" fill="none" xmlns="http://www.w3.org/2000/svg">
<g opacity="0.0191679">
<path fillRule="evenodd"  clipRule="evenodd" d="M700.648 0.1521L420 326.068L522.795 376.152L700.648 169.606L878.213 375.826L981 325.735L700.648 0.1521Z" fill="white"/>
<path fillRule="evenodd"  clipRule="evenodd" d="M1036.98 390.583L1036.46 389.968L933.676 440.051L934.047 440.474L700.5 553.668L534.382 473.159L534.374 473.181L520.238 466.305L466.953 440.474L467.042 440.378L364.253 390.301L364.016 390.583L0 214.152L64.2263 908.152L336.477 592L233.695 541.923L150.351 638.712L128.171 399.112L229.611 448.277L229.633 448.217L259.544 462.785L289.382 477.249L289.33 477.309L392.119 527.385L392.326 527.14L700.5 676.51L959.585 550.941L1170.4 448.217L1170.62 448.647L1272.83 399.112L1250.65 638.712L1167.02 541.59L1064.24 591.666L1336.77 908.152L1401 214.152L1036.98 390.583Z" fill="white"/>
<path fillRule="evenodd"  clipRule="evenodd" d="M287.465 786.152L180 908.152H1223L1112.79 786.152H287.465Z" fill="white"/>
</g>
</svg>
