<?xml version="1.0" encoding="utf-8"?>
<!-- Generator: Adobe Illustrator 25.2.3, SVG Export Plug-In . SVG Version: 6.00 Build 0)  -->
<svg version="1.1" id="Layer_1" xmlns="http://www.w3.org/2000/svg" xmlns:xlink="http://www.w3.org/1999/xlink" x="0px" y="0px"
	 width="61px" height="60px" viewBox="0 0 61 60" style="enable-background:new 0 0 61 60;" xml:space="preserve">
<style type="text/css">
	.st0{fill-rule:evenodd;clip-rule:evenodd;fill:#FFFFFF;}
</style>
<g>
	<g>
		<path class="st0" d="M30.5,2.1C23,2.1,16,5,10.7,10.3C5.5,15.6,2.6,22.6,2.6,30s2.9,14.5,8.1,19.8C16,55.1,23,58,30.5,58
			s14.5-2.9,19.8-8.2s8.2-12.3,8.2-19.8s-2.9-14.5-8.2-19.8C45,5,38,2.1,30.5,2.1z M30.5,60c-4,0-8-0.8-11.7-2.4
			c-3.6-1.5-6.8-3.7-9.5-6.4c-2.8-2.8-4.9-6-6.4-9.5C1.3,38,0.5,34.1,0.5,30s0.8-8,2.4-11.7c1.5-3.6,3.7-6.8,6.4-9.5
			c2.8-2.8,6-4.9,9.5-6.4C22.5,0.8,26.4,0,30.5,0s8,0.8,11.7,2.4c3.5,1.5,6.7,3.7,9.5,6.4c2.8,2.8,4.9,6,6.4,9.5
			c1.6,3.8,2.4,7.7,2.4,11.7s-0.8,8-2.4,11.7c-1.5,3.6-3.7,6.8-6.4,9.5c-2.8,2.8-6,4.9-9.5,6.4C38.5,59.2,34.5,60,30.5,60z"/>
	</g>
	<path class="st0" d="M34.6,20L34.6,20L34.6,20L34.6,20z"/>
	<path class="st0" d="M34.5,34c-1.4,0-2.5-1.2-2.5-2.6c0-1.5,1.1-2.7,2.5-2.7l0,0c1.4,0,2.5,1.2,2.5,2.6C37,32.9,35.9,34,34.5,34z
		 M25.4,34c-1.4,0-2.5-1.2-2.5-2.6c0-1.5,1.1-2.7,2.5-2.7l0,0c1.4,0,2.5,1.2,2.5,2.6C27.9,32.9,26.8,34,25.4,34z M35.2,37.9
		c0.7,0.9,1.6,2,1.6,2c5.5-0.1,7.6-3.6,7.7-3.4c0-7.7-3.6-13.9-3.6-13.9c-3.2-2.5-6.3-2.6-6.8-2.6l-0.4,0.4c4.1,1.2,6.1,3,6.1,3
		c-6-3-12.5-3.1-18.4-0.8c-0.9,0.4-1.5,0.7-1.5,0.7s2-2,6.4-3L26.1,20c0,0-3.3-0.1-6.9,2.5l0,0c0,0-3.6,6.2-3.6,13.9
		c0,0,2,3.4,7.5,3.6c0,0,0.8-1.1,1.6-2c-3.1-0.9-4.3-2.8-4.3-2.8l1,0.5c3,1.2,6.2,2.8,11.9,1.9c1.2-0.3,2.4-0.5,3.6-1.1
		c0.8-0.4,1.7-0.8,2.8-1.5C39.6,35.1,38.4,36.9,35.2,37.9z"/>
</g>
</svg>
