<svg xmlns="http://www.w3.org/2000/svg" viewBox="0 0 60 60"><defs><style>.cls-1{fill:#fff;fill-rule:evenodd;}</style></defs><g id="Layer_2" data-name="Layer 2"><g id="Layer_1-2" data-name="Layer 1"><path class="cls-1" d="M30,2.1A27.83,27.83,0,0,0,2.1,30a28.25,28.25,0,0,0,8.1,19.8,28,28,0,0,0,39.6,0,28,28,0,0,0,0-39.6A28.08,28.08,0,0,0,30,2.1ZM30,60A30.15,30.15,0,0,1,8.8,51.2a30,30,0,0,1-6.4-9.5,29.72,29.72,0,0,1,0-23.4A29.48,29.48,0,0,1,8.8,8.8a30,30,0,0,1,9.5-6.4,29.72,29.72,0,0,1,23.4,0,31.81,31.81,0,0,1,9.5,6.4A30.15,30.15,0,0,1,60,30a30.15,30.15,0,0,1-8.8,21.2,30,30,0,0,1-9.5,6.4A29.52,29.52,0,0,1,30,60Z"/><path class="cls-1" d="M34,34a2.56,2.56,0,0,1-2.5-2.6A2.59,2.59,0,0,1,34,28.7h0a2.56,2.56,0,0,1,2.5,2.6A2.53,2.53,0,0,1,34,34Zm-9.1,0a2.56,2.56,0,0,1-2.5-2.6,2.59,2.59,0,0,1,2.5-2.7h0a2.56,2.56,0,0,1,2.5,2.6A2.53,2.53,0,0,1,24.9,34Zm9.8,3.9c.7.9,1.6,2,1.6,2A10.4,10.4,0,0,0,44,36.5a30.69,30.69,0,0,0-3.6-13.9A11.62,11.62,0,0,0,33.6,20l-.4.4a16.7,16.7,0,0,1,6.1,3,22.36,22.36,0,0,0-18.4-.8c-.9.4-1.5.7-1.5.7a13.8,13.8,0,0,1,6.4-3l-.2-.3a12.26,12.26,0,0,0-6.9,2.5h0a30.69,30.69,0,0,0-3.6,13.9s2,3.4,7.5,3.6c0,0,.8-1.1,1.6-2a7.72,7.72,0,0,1-4.3-2.8l1,.5c3,1.2,6.2,2.8,11.9,1.9a16.51,16.51,0,0,0,3.6-1.1A27.17,27.17,0,0,0,39.2,35,8.66,8.66,0,0,1,34.7,37.9Z"/></g></g></svg>