<?xml version="1.0" encoding="utf-8"?>
<!-- Generator: Adobe Illustrator 25.2.3, SVG Export Plug-In . SVG Version: 6.00 Build 0)  -->
<svg version="1.1" id="Layer_1" xmlns="http://www.w3.org/2000/svg" xmlns:xlink="http://www.w3.org/1999/xlink" x="0px" y="0px"
	 width="18px" height="18px" viewBox="0 0 18 18" style="enable-background:new 0 0 18 18;" xml:space="preserve">
<style type="text/css">
	.st0gray{fill:#6B7280;}
	.st1gray{fill-rule:evenodd;clip-rule:evenodd;fill:#6B7280;}
</style>
<circle class="st0gray" cx="9" cy="13" r="1"/>
<path class="st1gray" d="M0,9c0-5,4-9,9-9c5,0,9,4,9,9c0,5-4,9-9,9C4,18,0,14,0,9z M1.4,9c0,4.2,3.4,7.6,7.6,7.6c4.2,0,7.6-3.4,7.6-7.6
	c0-4.2-3.4-7.6-7.6-7.6C4.8,1.4,1.4,4.8,1.4,9z"/>
<path class="st0gray" d="M9,5C7.3,5,6,6.2,6,7.7C6,8,6.3,8.3,6.8,8.3c0.4,0,0.8-0.3,0.8-0.7c0-0.7,0.7-1.3,1.5-1.3s1.5,0.6,1.5,1.3
	S9.8,9,9,9C8.6,9,8.2,9.3,8.2,9.7v1.7C8.2,11.7,8.6,12,9,12s0.8-0.3,0.8-0.7v-1.1C11,10,12,8.9,12,7.7C12,6.2,10.7,5,9,5z"/>
</svg>
