<?xml version="1.0" encoding="UTF-8"?>
<svg width="242px" height="202px" viewBox="0 0 242 202" version="1.1" xmlns="http://www.w3.org/2000/svg" xmlns:xlink="http://www.w3.org/1999/xlink">
    <title>Group 9</title>
    <defs>
        <polygon id="path-1" points="2.34297761e-05 0.91811144 151.998571 0.91811144 151.998571 44 2.34297761e-05 44"></polygon>
    </defs>
    <g id="Page-1" stroke="none" stroke-width="1" fill="none" fill-rule="evenodd">
        <g id="Desktop-HD" transform="translate(-93.000000, -2357.000000)">
            <g id="Group-9" transform="translate(93.000000, 2357.000000)">
                <circle id="Oval" fill="#FFFFFF" cx="60.5" cy="120.5" r="60.5"></circle>
                <g id="Group-10" transform="translate(29.000000, 0.000000)">
                    <path d="M63.9356338,14.3570903 C67.6378863,12.4166712 69.0734536,7.82054129 67.1392155,4.09189285 C65.2125331,0.370853886 60.6489403,-1.08255806 56.9466878,0.865470516 C21.8206228,19.3032566 0,55.5244129 0,95.3905134 C0,99.59095 3.37736094,103 7.55561732,103 C11.7263181,103 15.1112346,99.59095 15.1112346,95.3905134 C15.1112346,61.2163089 33.8189431,30.1696035 63.9356338,14.3570903" id="Fill-1" fill="#0F283E"></path>
                    <g id="Group-5" transform="translate(31.000000, 158.000000)">
                        <mask id="mask-2" fill="white">
                            <use xlink:href="#path-1"></use>
                        </mask>
                        <g id="Clip-4"></g>
                        <path d="M139.13776,3.05386667 C122.07576,19.5678667 99.65576,28.6682 75.99696,28.6682 C52.34576,28.6682 29.91816,19.5678667 12.86376,3.05386667 C9.83896,0.1252 5.02056,0.2172 2.11736,3.2762 C-0.79344,6.3352 -0.68704,11.1882 2.33776,14.1168667 C22.24216,33.3908667 48.40136,44.0015333 75.99696,44.0015333 C103.60016,44.0015333 129.75936,33.3908667 149.66376,14.1168667 C152.68856,11.1882 152.78736,6.3352 149.88416,3.2762 C146.97336,0.2172 142.16256,0.1252 139.13776,3.05386667" id="Fill-3" fill="#0F283E" mask="url(#mask-2)"></path>
                    </g>
                    <path d="M163.59543,5.17353063 C160.072473,2.93462498 155.400396,3.9931552 153.170197,7.54951213 C150.939998,11.1058691 151.990838,15.8045248 155.528915,18.0510458 C182.049379,34.9189914 197.880009,63.8267664 197.880009,95.3846747 C197.880009,99.5883342 201.266887,103 205.440005,103 C209.613122,103 213,99.5883342 213,95.3846747 C213,58.5721919 194.530931,24.843916 163.59543,5.17353063" id="Fill-6" fill="#0F283E"></path>
                    <path d="M106.5,148.777778 C77.1211111,148.777778 53.2222222,124.871278 53.2222222,95.5 C53.2222222,91.2986667 49.8124444,87.8888889 45.6111111,87.8888889 C41.4097778,87.8888889 38,91.2986667 38,95.5 C38,133.273944 68.7336667,164 106.5,164 C144.266333,164 175,133.273944 175,95.5 C175,57.7336667 144.266333,27 106.5,27 C85.5998889,27 66.1078333,36.3616667 53.0319444,52.6875 C50.3985,55.9678889 50.9312778,60.7552778 54.2040556,63.3811111 C57.4844444,66.0145556 62.2794444,65.4893889 64.9052778,62.2013889 C75.0813333,49.5060556 90.2426667,42.2222222 106.5,42.2222222 C135.878889,42.2222222 159.777778,66.1211111 159.777778,95.5 C159.777778,124.871278 135.878889,148.777778 106.5,148.777778" id="Fill-8" fill="#0F283E"></path>
                </g>
            </g>
        </g>
    </g>
</svg>