<svg width="64" height="64" viewBox="0 0 64 64" fill="none" xmlns="http://www.w3.org/2000/svg">
<circle cx="32" cy="32" r="28" fill="#051424"/>
<circle opacity="0.2" cx="32" cy="32" r="32" fill="#051424"/>
<path fill-rule="evenodd" clip-rule="evenodd" d="M31.9992 18L23.9878 26.9384L26.9222 28.312L31.9992 22.6474L37.068 28.303L40.0022 26.9293L31.9992 18Z" fill="#FAFAFA"/>
<path fill-rule="evenodd" clip-rule="evenodd" d="M41.6057 28.7185L41.5907 28.7016L38.6563 30.0754L38.6669 30.087L31.9992 33.1918L27.2565 30.9835L27.2563 30.9841L26.8527 30.7955L25.3314 30.087L25.334 30.0843L22.3994 28.7107L22.3926 28.7185L12 23.879L13.8337 42.9152L21.6063 34.2433L18.672 32.8697L16.2925 35.5246L15.6593 28.9524L18.5553 30.301L18.556 30.2994L19.4099 30.6989L20.2618 31.0957L20.2603 31.0973L23.1949 32.4709L23.2008 32.4642L31.9992 36.5613L39.396 33.117L45.4148 30.2994L45.421 30.3111L48.339 28.9524L47.7058 35.5246L45.3183 32.8605L42.3839 34.2341L50.1647 42.9152L51.9983 23.879L41.6057 28.7185Z" fill="#FAFAFA"/>
</svg>
