<svg width="713" height="170" viewBox="0 0 713 170" fill="none" xmlns="http://www.w3.org/2000/svg">
<path fill-rule="evenodd" clip-rule="evenodd" d="M221.918 154.912H218.653V159.997H221.918C222.718 159.997 223.366 159.758 223.867 159.276C224.362 158.793 224.608 158.194 224.608 157.478C224.608 157.127 224.544 156.794 224.416 156.481C224.289 156.167 224.102 155.895 223.867 155.666C223.621 155.441 223.341 155.254 223.012 155.118C222.683 154.982 222.315 154.912 221.918 154.912ZM215.167 168.541V152.459C215.167 152.155 215.319 152 215.624 152H222.615C223.43 152 224.176 152.155 224.849 152.459C225.521 152.768 226.105 153.175 226.601 153.685C227.097 154.196 227.48 154.781 227.755 155.441C228.03 156.097 228.167 156.776 228.167 157.478C228.167 158.18 228.025 158.859 227.745 159.505C227.46 160.156 227.072 160.732 226.577 161.233C226.081 161.738 225.487 162.141 224.799 162.436C224.112 162.736 223.366 162.885 222.566 162.885H218.653V168.541C218.653 168.85 218.491 169 218.172 169H215.624C215.319 169 215.167 168.85 215.167 168.541Z" fill="white"/>
<path fill-rule="evenodd" clip-rule="evenodd" d="M258.887 154.954H255.415V160.086H258.887C259.66 160.086 260.301 159.847 260.816 159.365C261.325 158.882 261.584 158.269 261.584 157.52C261.584 157.155 261.512 156.813 261.38 156.504C261.243 156.19 261.057 155.919 260.816 155.689C260.57 155.46 260.283 155.282 259.956 155.151C259.628 155.02 259.273 154.954 258.887 154.954ZM252.167 168.541V152.459C252.167 152.337 252.199 152.229 252.263 152.136C252.331 152.047 252.436 152 252.586 152H259.665C260.424 152 261.125 152.155 261.771 152.468C262.417 152.782 262.972 153.199 263.431 153.718C263.886 154.238 264.25 154.833 264.51 155.502C264.769 156.176 264.896 156.874 264.896 157.59C264.896 158.555 264.642 159.458 264.127 160.306C263.618 161.153 262.936 161.827 262.094 162.333L265.119 168.518C265.178 168.625 265.183 168.733 265.133 168.836C265.078 168.944 264.978 169 264.833 169H261.957C261.739 169 261.566 168.869 261.448 168.607L258.8 163.11H255.415V168.541C255.415 168.845 255.265 169 254.97 169H252.586C252.308 169 252.167 168.845 252.167 168.541Z" fill="white"/>
<path fill-rule="evenodd" clip-rule="evenodd" d="M303.7 161.012C303.7 160.212 303.56 159.464 303.276 158.77C302.992 158.08 302.601 157.478 302.104 156.967C301.612 156.455 301.029 156.05 300.354 155.751C299.674 155.452 298.936 155.303 298.131 155.303C297.345 155.303 296.617 155.452 295.937 155.751C295.262 156.05 294.674 156.455 294.182 156.967C293.685 157.478 293.3 158.08 293.025 158.77C292.75 159.464 292.61 160.212 292.61 161.012C292.61 161.798 292.75 162.541 293.025 163.23C293.3 163.924 293.685 164.522 294.182 165.033C294.674 165.549 295.262 165.954 295.937 166.249C296.617 166.548 297.345 166.697 298.131 166.697C298.936 166.697 299.674 166.548 300.354 166.249C301.029 165.954 301.612 165.549 302.104 165.033C302.601 164.522 302.992 163.924 303.276 163.23C303.56 162.541 303.7 161.798 303.7 161.012ZM307.167 161.012C307.167 162.256 306.936 163.423 306.463 164.518C305.991 165.607 305.345 166.562 304.525 167.372C303.71 168.182 302.75 168.819 301.651 169.291C300.547 169.764 299.375 170 298.131 170C296.887 170 295.72 169.764 294.63 169.291C293.536 168.819 292.581 168.182 291.771 167.372C290.961 166.562 290.324 165.607 289.866 164.518C289.399 163.423 289.167 162.256 289.167 161.012C289.167 159.754 289.399 158.577 289.866 157.487C290.324 156.393 290.961 155.438 291.771 154.628C292.581 153.818 293.536 153.181 294.63 152.709C295.72 152.236 296.887 152 298.131 152C299.375 152 300.547 152.236 301.651 152.709C302.75 153.181 303.71 153.818 304.525 154.628C305.345 155.438 305.991 156.393 306.463 157.487C306.936 158.577 307.167 159.754 307.167 161.012Z" fill="white"/>
<path fill-rule="evenodd" clip-rule="evenodd" d="M329.167 154.613V152.435C329.167 152.145 329.313 152 329.605 152H341.706C342.012 152 342.167 152.145 342.167 152.435V154.613C342.167 154.917 342.012 155.071 341.706 155.071H337.283V168.541C337.283 168.845 337.137 169 336.84 169H334.353C334.061 169 333.915 168.845 333.915 168.541V155.071H329.605C329.313 155.071 329.167 154.917 329.167 154.613Z" fill="white"/>
<path fill-rule="evenodd" clip-rule="evenodd" d="M378.7 161.012C378.7 160.212 378.56 159.464 378.276 158.77C377.992 158.08 377.601 157.478 377.104 156.967C376.612 156.455 376.029 156.05 375.354 155.751C374.674 155.452 373.936 155.303 373.131 155.303C372.345 155.303 371.617 155.452 370.937 155.751C370.262 156.05 369.674 156.455 369.182 156.967C368.685 157.478 368.3 158.08 368.025 158.77C367.75 159.464 367.61 160.212 367.61 161.012C367.61 161.798 367.75 162.541 368.025 163.23C368.3 163.924 368.685 164.522 369.182 165.033C369.674 165.549 370.262 165.954 370.937 166.249C371.617 166.548 372.345 166.697 373.131 166.697C373.936 166.697 374.674 166.548 375.354 166.249C376.029 165.954 376.612 165.549 377.104 165.033C377.601 164.522 377.992 163.924 378.276 163.23C378.56 162.541 378.7 161.798 378.7 161.012ZM382.167 161.012C382.167 162.256 381.936 163.423 381.463 164.518C380.991 165.607 380.345 166.562 379.525 167.372C378.71 168.182 377.746 168.819 376.651 169.291C375.547 169.764 374.375 170 373.131 170C371.887 170 370.72 169.764 369.63 169.291C368.536 168.819 367.581 168.182 366.771 167.372C365.961 166.562 365.324 165.607 364.866 164.518C364.399 163.423 364.167 162.256 364.167 161.012C364.167 159.754 364.399 158.577 364.866 157.487C365.324 156.393 365.961 155.438 366.771 154.628C367.581 153.818 368.536 153.181 369.63 152.709C370.72 152.236 371.887 152 373.131 152C374.375 152 375.547 152.236 376.651 152.709C377.746 153.181 378.71 153.818 379.525 154.628C380.345 155.438 380.991 156.393 381.463 157.487C381.936 158.577 382.167 159.754 382.167 161.012Z" fill="white"/>
<path fill-rule="evenodd" clip-rule="evenodd" d="M419.148 165.666C419.452 165.43 419.695 165.43 419.877 165.666L421.022 167.669C421.143 167.809 421.19 167.934 421.157 168.035C421.129 168.136 421.045 168.242 420.909 168.353C420.255 168.854 419.522 169.254 418.713 169.557C417.905 169.851 416.98 170 415.947 170C414.742 170 413.606 169.764 412.541 169.297C411.471 168.825 410.541 168.18 409.742 167.361C408.938 166.547 408.312 165.589 407.854 164.491C407.396 163.388 407.167 162.218 407.167 160.976C407.167 159.724 407.396 158.549 407.854 157.465C408.312 156.382 408.938 155.433 409.742 154.615C410.541 153.801 411.471 153.161 412.541 152.698C413.606 152.231 414.742 152 415.947 152C416.98 152 417.905 152.144 418.713 152.433C419.522 152.727 420.26 153.122 420.928 153.628C421.054 153.734 421.11 153.849 421.11 153.955C421.11 154.066 421.096 154.152 421.068 154.215L419.853 156.334C419.718 156.522 419.503 156.531 419.213 156.358C418.681 156.011 418.162 155.746 417.648 155.559C417.139 155.371 416.573 155.274 415.947 155.274C415.171 155.274 414.452 155.419 413.798 155.713C413.144 156.002 412.573 156.406 412.092 156.926C411.611 157.446 411.237 158.048 410.961 158.742C410.69 159.43 410.55 160.177 410.55 160.976C410.55 161.78 410.69 162.531 410.961 163.225C411.237 163.928 411.611 164.539 412.092 165.064C412.573 165.589 413.144 166.008 413.798 166.316C414.452 166.62 415.171 166.774 415.947 166.774C416.573 166.774 417.162 166.668 417.718 166.456C418.274 166.244 418.751 165.979 419.148 165.666Z" fill="white"/>
<path fill-rule="evenodd" clip-rule="evenodd" d="M458.7 161.012C458.7 160.212 458.56 159.464 458.276 158.77C457.992 158.08 457.601 157.478 457.104 156.967C456.612 156.455 456.029 156.05 455.354 155.751C454.674 155.452 453.936 155.303 453.131 155.303C452.345 155.303 451.617 155.452 450.937 155.751C450.262 156.05 449.674 156.455 449.182 156.967C448.685 157.478 448.3 158.08 448.025 158.77C447.75 159.464 447.61 160.212 447.61 161.012C447.61 161.798 447.75 162.541 448.025 163.23C448.3 163.924 448.685 164.522 449.182 165.033C449.674 165.549 450.262 165.954 450.937 166.249C451.617 166.548 452.345 166.697 453.131 166.697C453.936 166.697 454.674 166.548 455.354 166.249C456.029 165.954 456.612 165.549 457.104 165.033C457.601 164.522 457.992 163.924 458.276 163.23C458.56 162.541 458.7 161.798 458.7 161.012ZM462.167 161.012C462.167 162.256 461.936 163.423 461.463 164.518C460.991 165.607 460.345 166.562 459.525 167.372C458.71 168.182 457.746 168.819 456.651 169.291C455.547 169.764 454.375 170 453.131 170C451.887 170 450.72 169.764 449.63 169.291C448.536 168.819 447.581 168.182 446.771 167.372C445.961 166.562 445.324 165.607 444.866 164.518C444.399 163.423 444.167 162.256 444.167 161.012C444.167 159.754 444.399 158.577 444.866 157.487C445.324 156.393 445.961 155.438 446.771 154.628C447.581 153.818 448.536 153.181 449.63 152.709C450.72 152.236 451.887 152 453.131 152C454.375 152 455.547 152.236 456.651 152.709C457.746 153.181 458.71 153.818 459.525 154.628C460.345 155.438 460.991 156.393 461.463 157.487C461.936 158.577 462.167 159.754 462.167 161.012Z" fill="white"/>
<path fill-rule="evenodd" clip-rule="evenodd" d="M487.167 152.505C487.167 152.369 487.216 152.248 487.309 152.15C487.406 152.051 487.538 152 487.714 152H490.153C490.484 152 490.66 152.168 490.675 152.505V165.891H497.645C497.787 165.891 497.909 165.933 498.016 166.026C498.118 166.12 498.167 166.246 498.167 166.414V168.5C498.167 168.818 497.997 168.986 497.645 169H487.694C487.343 169 487.167 168.832 487.167 168.5V152.505Z" fill="white"/>
<path fill-rule="evenodd" clip-rule="evenodd" d="M248.217 39.0204C246.586 32.5533 244.126 26.6836 240.822 21.416C237.518 16.1532 233.404 11.8718 228.469 8.59081C223.539 5.30035 217.723 3.65986 211.005 3.65986C204.192 3.65986 198.285 5.30035 193.308 8.59081C188.321 11.8718 184.235 16.1247 181.036 21.3401C177.832 26.5556 175.472 32.4774 173.956 39.0963C172.43 45.7246 171.672 52.424 171.672 59.2041C171.672 66.2971 172.511 73.1292 174.194 79.7007C175.867 86.2721 178.361 92.0612 181.665 97.068C184.969 102.075 189.112 106.091 194.094 109.116C199.072 112.141 204.869 113.653 211.482 113.653C218.09 113.653 223.83 111.984 228.708 108.646C233.585 105.308 237.647 101.003 240.903 95.7357C244.15 90.4729 246.586 84.551 248.217 77.9796C249.843 71.4082 250.658 64.8367 250.658 58.2653C250.658 51.9025 249.843 45.4875 248.217 39.0204ZM265.442 81.2653C262.296 88.3583 258.024 94.5125 252.622 99.7279C247.22 104.943 240.927 108.959 233.742 111.776C226.557 114.592 218.924 116 210.848 116C202.876 116 195.324 114.616 188.192 111.851C181.059 109.092 174.818 105.18 169.469 100.117C164.12 95.0577 159.9 89.0078 156.806 81.967C153.712 74.9262 152.167 67.1837 152.167 58.7347C152.167 49.7642 153.788 41.704 157.045 34.5589C160.296 27.4185 164.673 21.3638 170.18 16.4092C175.686 11.4593 182.137 7.64729 189.532 4.98743C196.926 2.32756 204.712 1 212.898 1C221.809 1 229.809 2.56463 236.889 5.69388C243.969 8.82313 249.971 13.0239 254.901 18.2867C259.836 23.5543 263.612 29.6327 266.229 36.517C268.851 43.4014 270.167 50.5986 270.167 58.1088C270.167 66.4535 268.589 74.1723 265.442 81.2653Z" fill="white"/>
<path fill-rule="evenodd" clip-rule="evenodd" d="M411.631 5.76667C409.538 6.81296 407.601 8.17315 405.822 9.84722C404.038 11.5213 402.344 13.5093 400.722 15.8111C399.095 18.113 397.344 20.7287 395.465 23.6583C394.204 25.6463 392.453 28.3429 390.203 31.7386C387.948 35.1391 385.65 38.6727 383.295 42.3347C380.94 45.9968 378.661 49.5019 376.463 52.85C374.265 56.1981 372.538 58.8139 371.287 60.6972V92.2431C371.287 95.2773 371.358 98.2307 371.515 101.108C371.677 103.99 372.171 106.002 373.009 107.153C374.579 109.455 376.625 110.972 379.132 111.704C381.644 112.437 384.051 113.012 386.359 113.431V115H337.998V113.431C340.719 113.117 343.102 112.622 345.139 111.937C347.184 111.262 349.354 109.612 351.661 106.996C352.18 106.473 352.575 105.583 352.837 104.328C353.093 103.072 353.303 101.66 353.46 100.09C353.622 98.5208 353.721 96.8468 353.779 95.0681C353.831 93.2894 353.855 91.563 353.855 89.8889C353.959 86.9593 354.04 83.478 354.088 79.4497C354.14 75.4215 354.169 70.5324 354.169 64.7778C353.959 64.4639 353.331 63.4699 352.285 61.7958C351.238 60.1218 349.953 58.0577 348.44 55.5942C346.918 53.1354 345.243 50.3912 343.416 47.3569C341.58 44.3227 339.772 41.3693 337.998 38.4872C336.213 35.6099 334.543 32.9181 332.973 30.4069C331.403 27.8958 330.09 25.8556 329.053 24.2861C327.06 21.2519 325.257 18.4792 323.634 15.9681C322.007 13.4569 320.356 11.312 318.686 9.53333C317.012 7.75463 315.366 6.34213 313.743 5.29583C312.116 4.24954 310.261 3.67407 308.167 3.56944V2H355.739V3.56944C354.169 3.67407 352.599 3.83102 351.029 4.04028C349.459 4.24954 347.993 4.58721 346.633 5.05804C345.272 5.52887 344.173 6.15665 343.34 6.94137C342.498 7.72609 342.08 8.80093 342.08 10.1611C342.08 11.5213 342.836 13.5901 344.354 16.358C345.876 19.1355 347.47 21.9319 349.145 24.7569C350.296 26.6403 351.661 28.9136 353.231 31.5816C354.797 34.2497 356.524 37.0747 358.408 40.0566C360.292 43.0386 362.2 46.1014 364.141 49.2403C366.077 52.3792 367.88 55.3611 369.555 58.1861C370.911 56.1981 372.59 53.6585 374.579 50.5719C376.568 47.4854 378.585 44.3512 380.621 41.1553C382.667 37.9688 384.598 34.906 386.435 31.9764C388.262 29.0468 389.651 26.7449 390.593 25.0708C391.116 24.2338 391.697 23.2636 392.32 22.165C392.948 21.0664 393.547 19.9202 394.123 18.7122C394.699 17.5137 395.198 16.2819 395.617 15.0264C396.036 13.7708 396.25 12.6199 396.25 11.5736C396.25 9.89954 395.826 8.59167 394.989 7.65C394.152 6.70833 393.081 5.97593 391.768 5.45278C390.46 4.92963 389.023 4.53489 387.453 4.27332C385.883 4.0165 384.365 3.7787 382.9 3.56944V2H419.167V3.56944C416.237 3.98796 413.725 4.72037 411.631 5.76667Z" fill="white"/>
<path fill-rule="evenodd" clip-rule="evenodd" d="M560.865 111.71C559.079 110.874 557.585 109.91 556.377 108.809C555.169 107.712 554.195 106.644 553.46 105.599C552.724 104.555 552.252 103.824 552.042 103.406C550.786 100.69 549.65 98.2594 548.652 96.1182C547.654 93.9817 546.58 91.2897 545.429 88.0518C542.903 81.4714 540.382 74.815 537.866 68.078C535.34 61.3362 532.738 54.3665 530.065 47.1594C527.381 39.9523 524.569 32.4604 521.633 24.6741C518.692 16.8972 515.593 8.66939 512.337 0H511.076C510.656 0.731153 510.05 1.67121 509.262 2.82016C508.474 3.96912 507.505 5.1703 506.35 6.42371C505.194 7.67711 503.857 8.87829 502.334 10.0272C500.811 11.1762 499.102 12.1685 497.211 13.0041L498.787 16.451C496.271 22.3002 493.588 28.591 490.751 35.3328C487.92 42.0698 485.051 48.7546 482.167 55.3825C479.274 62.0199 476.466 68.4673 473.735 74.7343C471.004 81.0014 468.536 86.5895 466.33 91.4986C463.914 96.8256 461.866 100.847 460.185 103.563C458.509 106.278 457.297 108.002 456.561 108.733C456.246 109.151 455.119 109.934 453.171 111.083C451.228 112.232 448.898 112.963 446.167 113.277V115H479.722V113.433C478.357 113.224 476.91 112.992 475.392 112.726C473.864 112.469 472.446 112.052 471.138 111.472C469.825 110.903 468.746 110.172 467.906 109.279C467.065 108.396 466.65 107.271 466.65 105.913C466.65 103.615 467.748 99.6458 469.954 94.0054C471.424 90.3497 472.895 86.7177 474.365 83.1189C475.836 79.5106 477.359 75.7266 478.935 71.7575L480.357 68.4673C482.874 62.3047 485.208 56.5884 487.362 51.3089C489.52 46.0342 491.487 41.3102 493.272 37.1322C495.058 32.9541 496.552 29.4028 497.765 26.4782C498.968 23.5536 499.89 21.4124 500.52 20.0545C501.47 22.3524 502.649 25.3008 504.068 28.909C505.481 32.5078 507.056 36.4817 508.794 40.8117C510.527 45.1464 512.308 49.6662 514.151 54.3665C515.989 59.0668 517.794 63.767 519.585 68.4673L520.845 71.7575C522.421 75.8311 523.891 79.748 525.257 83.5082C526.622 87.2684 527.83 90.6915 528.881 93.7681C529.931 96.8541 530.743 99.4654 531.325 101.607C531.903 103.748 532.189 105.286 532.189 106.226C532.189 107.688 531.693 108.89 530.695 109.83C529.697 110.77 528.537 111.501 527.229 112.023C525.916 112.545 524.65 112.911 523.447 113.12C522.234 113.329 521.475 113.433 521.165 113.433V115H567.167V113.12C564.747 113.015 562.651 112.545 560.865 111.71Z" fill="white"/>
<mask id="mask0" mask-type="alpha" maskUnits="userSpaceOnUse" x="604" y="2" width="108" height="114">
<path fill-rule="evenodd" clip-rule="evenodd" d="M604.512 2.27338H711.98V115.33H604.512V2.27338Z" fill="white"/>
</mask>
<g mask="url(#mask0)">
<path fill-rule="evenodd" clip-rule="evenodd" d="M706.121 115.33H604.512V113.759C607.15 113.345 609.759 112.66 612.349 111.718C614.929 110.776 616.963 109.467 618.445 107.793C618.967 107.164 619.418 106.251 619.788 105.042C620.157 103.843 620.445 102.454 620.66 100.884C620.871 99.3133 621.054 97.667 621.212 95.935C621.37 94.2125 621.452 92.509 621.452 90.8341C621.452 89.3686 621.476 87.3796 621.528 84.8673C621.581 82.3549 621.634 79.6094 621.687 76.626C621.735 73.6378 621.763 70.5782 621.763 67.4378V58.3304V27.8681V22.3723C621.763 20.488 621.687 18.737 621.528 17.1096C621.37 15.4918 621.13 14.0501 620.819 12.7939C620.497 11.5377 620.027 10.5432 619.389 9.81046C617.912 8.03087 615.931 6.67001 613.457 5.72787C610.977 4.78574 608.363 4.15765 605.62 3.8436V2.27338H656.108V3.8436C654.736 4.05297 653.101 4.36701 651.206 4.78574C649.302 5.20447 647.509 5.8849 645.825 6.82703C644.132 7.76917 642.679 9.10148 641.47 10.8335C640.257 12.556 639.595 14.8352 639.49 17.6616C639.384 21.3255 639.303 24.6753 639.255 27.711C639.202 30.7468 639.149 33.735 639.092 36.6613C639.044 39.5924 639.02 42.6282 639.02 45.7686V56.2892V66.0246V74.3468C639.02 77.0685 639.044 79.8711 639.092 82.7451C639.149 85.6286 639.173 88.8499 639.173 92.4044C639.279 95.7542 639.413 98.947 639.571 101.983C639.729 105.019 640.281 107.269 641.235 108.735C641.653 109.258 642.497 109.782 643.763 110.305C645.034 110.828 646.559 111.271 648.353 111.642C650.147 112.008 652.099 112.322 654.214 112.579C656.319 112.846 658.429 112.974 660.54 112.974C661.384 112.974 662.731 112.951 664.578 112.893C666.424 112.846 668.453 112.741 670.669 112.579C672.885 112.427 675.153 112.189 677.474 111.875C679.796 111.561 681.853 111.142 683.647 110.619C687.867 109.467 691.378 107.95 694.174 106.065C696.97 104.181 699.368 102.011 701.378 99.5513C703.378 97.0912 705.066 94.4219 706.438 91.5384C707.809 88.6644 709.128 85.6524 710.399 82.5119L711.982 82.983L706.121 115.33Z" fill="white"/>
</g>
<path fill-rule="evenodd" clip-rule="evenodd" d="M0.167236 3.72399V2.15673H6.62267C10.1841 2.15673 14.2223 2.13298 18.7373 2.08074C23.2428 2.0285 27.753 2 32.2632 2H43.2766C50.3041 2 56.545 2.21372 61.9992 2.62691C67.4535 3.04485 72.4357 4.45539 76.9459 6.85853C81.561 9.26642 85.2893 12.5292 88.1166 16.6563C90.9486 20.7835 92.3646 25.9792 92.3646 32.2483C92.3646 36.1142 91.6542 39.5907 90.243 42.673C88.827 45.7553 86.939 48.4719 84.579 50.8228C82.219 53.1737 79.4632 55.1826 76.3213 56.8544C73.1747 58.5309 69.8659 59.9367 66.4093 61.086V61.5562C68.1877 62.4965 69.9184 63.8548 71.5966 65.6311C73.2748 67.4121 74.9006 69.3925 76.4739 71.5867C79.201 75.5571 82.1617 79.841 85.3656 84.4383C88.5647 89.0356 91.4253 93.1105 93.9379 96.663C97.814 102.096 101.59 106.067 105.266 108.574C108.937 111.082 113.237 112.701 118.167 113.433V115H85.9139C84.9699 114.06 84.2881 113.352 83.8733 112.887C83.449 112.416 82.977 111.865 82.4526 111.239C81.9234 110.612 81.275 109.7 80.4883 108.498C79.7016 107.297 78.4668 105.497 76.7886 103.089C74.7957 100.168 73.0364 97.5226 71.5203 95.1764C69.9946 92.8255 68.4499 90.4984 66.8766 88.1997C65.3032 85.9058 63.6012 83.5739 61.7656 81.2278C59.9253 78.8769 57.7512 76.241 55.2339 73.3107C53.1361 70.9075 50.8572 68.6611 48.3875 66.5714C45.9274 64.4817 43.329 63.1804 40.6019 62.6533C38.609 62.2353 37.0881 62.0264 36.0392 62.0264C35.0952 62.0264 33.889 61.9741 32.4253 61.8696V59.8322C36.721 59.8322 40.7354 59.6517 44.459 59.286C48.1777 58.9203 51.7726 58.1604 55.2339 57.0111C58.5903 55.9663 61.47 54.5605 63.8872 52.7795C66.2997 51.008 68.264 48.9943 69.7896 46.7479C71.3057 44.5014 72.4357 42.0698 73.1747 39.4577C73.9041 36.8503 74.2712 34.129 74.2712 31.3079C74.2712 26.0837 72.9601 21.4341 70.3379 17.3592C67.7157 13.2843 63.8872 10.0501 58.8573 7.64216C52.4496 4.58362 45.4316 4.41264 38.4708 4.18468C25.7125 3.76199 12.9351 3.72399 0.167236 3.72399Z" fill="white"/>
</svg>
