<?xml version="1.0" encoding="UTF-8"?>
<svg width="211px" height="222px" viewBox="0 0 211 222" version="1.1" xmlns="http://www.w3.org/2000/svg" xmlns:xlink="http://www.w3.org/1999/xlink">
    <title>Group</title>
    <defs>
        <polygon id="path-1" points="0.000544561905 0.001 178.559938 0.001 178.559938 207.998 0.000544561905 207.998"></polygon>
    </defs>
    <g id="Page-1" stroke="none" stroke-width="1" fill="none" fill-rule="evenodd">
        <g id="Desktop-HD" transform="translate(-1112.000000, -2357.000000)">
            <g id="Group" transform="translate(1112.000000, 2357.000000)">
                <circle id="Oval-Copy-2" fill="#FFFFFF" cx="150.5" cy="161.5" r="60.5"></circle>
                <g id="Group-8">
                    <g id="Group-3" transform="translate(0.317647, 0.000000)">
                        <mask id="mask-2" fill="white">
                            <use xlink:href="#path-1"></use>
                        </mask>
                        <g id="Clip-2"></g>
                        <path d="M177.162185,36.254 C176.705612,32.45 173.521619,29.678 169.580677,29.718 C155.539067,30.098 141.685693,27.75 128.525188,22.766 C115.909366,17.994 104.386915,10.974 94.2782374,1.906 C91.4587014,-0.634 87.1573068,-0.634 84.3417758,1.906 C74.2290932,10.974 62.7106475,17.994 50.0948256,22.766 C36.9303155,27.75 23.1089817,30.098 9.03933653,29.718 C5.14645434,29.626 1.91440091,32.45 1.45782831,36.258 C-1.25357215,58.798 -5.91541872,136.05 47.7839274,183.834 C59.0060014,193.818 72.0583708,201.774 86.5845886,207.486 C87.4656936,207.826 88.3868489,207.998 89.3080041,207.998 C90.2331644,207.998 91.1543196,207.826 92.0314196,207.486 C106.561642,201.774 119.614012,193.818 130.836086,183.834 C133.899928,181.102 134.176275,176.406 131.444849,173.346 C128.701409,170.27 123.999512,170.014 120.943679,172.734 C111.740137,180.926 101.106801,187.586 89.3080041,192.546 C77.5132119,187.586 66.8798763,180.926 57.6763338,172.734 C13.3046858,133.25 13.7372283,68.306 15.5915539,44.562 C29.2086315,44.158 42.5613776,41.51 55.3654356,36.662 C67.6728708,32.002 79.0671607,25.466 89.3080041,17.19 C99.5528525,25.466 110.939132,32.002 123.250573,36.662 C136.066646,41.514 149.423397,44.162 163.040474,44.562 C164.670519,64.634 165.067016,109.342 142.442642,146.75 C140.31998,150.262 141.445391,154.826 144.969811,156.95 C148.478211,159.074 153.055953,157.938 155.18262,154.426 C183.205764,108.082 179.088601,52.262 177.162185,36.254" id="Fill-1" fill="#0F283E" mask="url(#mask-2)"></path>
                    </g>
                    <path d="M100.629991,89.9987376 C98.532013,89.9987376 96.4655246,89.0193384 95.1626528,87.1819854 L89.1875491,78.7709046 L82.2520203,87.4758051 C79.9532979,90.3591565 75.7455338,90.8449386 72.8485138,88.5570619 C69.95543,86.2731028 69.4712812,82.0812741 71.7660674,79.1979227 L84.2515938,63.5275346 C85.5623379,61.8821439 87.5894647,60.8753215 89.6795702,61.0124373 C91.7854203,61.0672837 93.741696,62.1093645 94.9579721,63.8213544 L106.089456,79.4917424 C108.22286,82.4965393 107.506477,86.6531098 104.487436,88.7764473 C103.318394,89.5991427 101.968288,89.9987376 100.629991,89.9987376" id="Fill-4" fill="#0F283E"></path>
                    <path d="M42.7244494,131 C42.0546337,131 41.3808072,130.903285 40.7190133,130.697765 C38.1961747,129.915984 36.3471626,127.743922 35.9741514,125.116493 L30.3870064,85.8219224 C30.0300388,83.3274767 31.0688547,80.8370609 33.0903343,79.3420054 C35.1158248,77.8388904 37.7910766,77.5769534 40.0532085,78.6649992 L90.132959,102.497231 L137.449219,78.7254462 C139.639155,77.6293408 142.254244,77.786503 144.287756,79.1606645 C146.325279,80.5267663 147.476399,82.8882286 147.299921,85.3423763 L144.508354,124.636947 C144.319843,127.292585 142.615222,129.60166 140.136503,130.552692 C137.649762,131.483576 134.854184,130.915374 132.953031,129.061667 L120.868273,117.250325 C118.172967,114.610807 118.112804,110.270713 120.735914,107.562688 C123.363035,104.846604 127.682745,104.794216 130.378051,107.425675 L131.950313,108.965059 L132.848748,96.3558172 L93.2694611,116.242876 C91.3923729,117.181819 89.1904041,117.210028 87.2972724,116.307353 L45.6764513,96.4968602 L47.4292025,108.783718 L48.387801,107.72791 C50.9186613,104.93123 55.230349,104.72168 58.0179052,107.272543 C60.8054614,109.819376 61.006005,114.15141 58.4711337,116.95212 L47.7661158,128.759432 C46.4545606,130.210159 44.6135702,131 42.7244494,131" id="Fill-6" fill="#0F283E"></path>
                </g>
            </g>
        </g>
    </g>
</svg>