<?xml version="1.0" encoding="utf-8"?>
<!-- Generator: Adobe Illustrator 25.2.3, SVG Export Plug-In . SVG Version: 6.00 Build 0)  -->
<svg version="1.1" id="Layer_1" xmlns="http://www.w3.org/2000/svg" xmlns:xlink="http://www.w3.org/1999/xlink" x="0px" y="0px"
	 width="61px" height="61px" viewBox="0 0 61 61" style="enable-background:new 0 0 61 61;" xml:space="preserve">
<style type="text/css">
	.st0{fill-rule:evenodd;clip-rule:evenodd;fill:#FFFFFF;}
</style>
<g>
	<path class="st0" d="M30.5,2.1c-7.6,0-14.7,3-20.1,8.3C5,15.8,2.1,22.9,2.1,30.5s3,14.7,8.3,20.1c5.4,5.4,12.5,8.3,20.1,8.3
		s14.7-3,20.1-8.3c5.4-5.4,8.3-12.5,8.3-20.1s-3-14.7-8.3-20.1C45.2,5.1,38.1,2.1,30.5,2.1z M30.5,61c-4.1,0-8.1-0.8-11.9-2.4
		c-3.6-1.5-6.9-3.7-9.7-6.5s-5-6.1-6.5-9.7C0.8,38.6,0,34.6,0,30.5s0.8-8.1,2.4-11.9C3.9,15,6.1,11.8,8.9,9s6.1-5,9.7-6.5
		c3.8-1.6,7.7-2.4,11.9-2.4c4.1,0,8.1,0.8,11.9,2.4C46,4,49.2,6.2,52,9s5,6.1,6.5,9.7c1.6,3.8,2.4,7.7,2.4,11.9
		c0,4.1-0.8,8.1-2.4,11.9C57,46,54.8,49.3,52,52.1s-6.1,5-9.7,6.5C38.6,60.2,34.6,61,30.5,61z"/>
</g>
<path class="st0" d="M35.9,35.9c-1.5,0-2.6-1.2-2.6-2.7s1.2-2.7,2.6-2.7c1.5,0,2.7,1.2,2.7,2.7C38.5,34.7,37.3,35.9,35.9,35.9z
	 M35.9,39.6c-2.5,2.5-9.4,2.5-11.8,0c-0.3-0.2-0.3-0.7,0-0.9c0.2-0.2,0.7-0.2,0.9,0c1.9,2,8.1,2,10,0c0.2-0.2,0.7-0.2,0.9,0
	C36.2,39,36.2,39.4,35.9,39.6z M21.5,33.2c0-1.5,1.2-2.7,2.7-2.7s2.6,1.2,2.6,2.7s-1.2,2.7-2.6,2.7C22.7,35.9,21.5,34.7,21.5,33.2z
	 M42.4,25.9c-1,0-1.9,0.4-2.6,1.1c-2.4-1.7-5.7-2.8-9.2-2.9l1.9-8.6l5.9,1.4c0,1.5,1.2,2.7,2.6,2.7c1.5,0,2.7-1.3,2.7-2.7
	c0-1.5-1.2-2.7-2.7-2.7c-1,0-1.9,0.6-2.4,1.5L32.1,14c-0.3-0.1-0.7,0.2-0.7,0.5L29.3,24c-3.6,0.2-6.8,1.3-9.2,3
	c-0.7-0.7-1.6-1.1-2.6-1.1c-3.7,0-5,5.2-1.5,6.9c-0.1,0.5-0.2,1.1-0.2,1.7C15.8,40.3,22.2,45,30,45c7.9,0,14.2-4.7,14.2-10.5
	c0-0.6-0.1-1.2-0.2-1.7C47.4,31,46.2,25.9,42.4,25.9L42.4,25.9z"/>
</svg>
