<?xml version="1.0" encoding="UTF-8"?>
<svg width="193px" height="222px" viewBox="0 0 193 222" version="1.1" xmlns="http://www.w3.org/2000/svg" xmlns:xlink="http://www.w3.org/1999/xlink">
    <title>Group 2</title>
    <defs>
        <polygon id="path-1" points="0 0.00360714286 144 0.00360714286 144 202 0 202"></polygon>
    </defs>
    <g id="Page-1" stroke="none" stroke-width="1" fill="none" fill-rule="evenodd">
        <g id="Desktop-HD" transform="translate(-643.000000, -2337.000000)">
            <g id="Group-2" transform="translate(643.000000, 2337.000000)">
                <circle id="Oval-Copy" fill="#FFFFFF" cx="132.5" cy="60.5" r="60.5"></circle>
                <g id="Group-6" transform="translate(0.000000, 20.000000)">
                    <g id="Group-3">
                        <mask id="mask-2" fill="white">
                            <use xlink:href="#path-1"></use>
                        </mask>
                        <g id="Clip-2"></g>
                        <path d="M14.4,187.73375 L14.2416,72.1464643 L28.8,72.1464643 C32.7816,72.1464643 36,68.9144643 36,64.9321786 L36,50.5036071 C36,30.6138214 52.1496,14.4321786 72,14.4321786 C91.8504,14.4321786 108,30.6138214 108,50.5036071 L108,57.7178929 L57.6,57.7178929 C53.6184,57.7178929 50.4,60.9426786 50.4,64.9321786 C50.4,68.9144643 53.6184,72.1464643 57.6,72.1464643 L114.5664,72.0166071 C114.7896,72.03825 114.9768,72.1464643 115.2,72.1464643 C115.4304,72.1464643 115.6248,72.0310357 115.848,72.0093929 L129.6,71.9805357 L129.7584,187.575036 L14.4,187.73375 Z M129.7584,57.7178929 L122.4,57.7178929 L122.4,50.5036071 C122.4,22.6564643 99.7848,0.00360714286 72,0.00360714286 C44.2152,0.00360714286 21.6,22.6564643 21.6,50.5036071 L21.6,57.7178929 L14.2416,57.7178929 C6.3864,57.7178929 0,64.1169643 0,71.9805357 L0,187.73375 C0,195.597321 6.3864,202.003607 14.2416,202.003607 L129.7584,202.003607 C137.6136,202.003607 144,195.597321 144,187.73375 L144,71.9805357 C144,64.1169643 137.6136,57.7178929 129.7584,57.7178929 L129.7584,57.7178929 Z" id="Fill-1" fill="#0F283E" mask="url(#mask-2)"></path>
                    </g>
                    <path d="M77.7974624,96.7276007 C75.064127,93.0907998 68.9304353,93.0907998 66.1970999,96.7276007 L44.4464202,125.5911 C42.5178599,128.152736 42.5178599,131.688515 44.4464202,134.25015 L66.1970999,163.11365 C67.6253945,165.004209 69.7932123,166 72.0045314,166 C73.5198287,166 75.0423763,165.530968 76.3474171,164.556825 C79.5520173,162.16837 80.2045376,157.644017 77.7974624,154.4546 L59.3093847,129.920625 L71.9972812,113.085989 L84.6851777,129.920625 L80.697553,135.209862 C78.2904778,138.399278 78.9429982,142.923632 82.1548486,145.312087 C85.3521985,147.714973 89.9053408,147.065544 92.2979156,143.876127 L99.5481421,134.25015 C101.483953,131.688515 101.483953,128.152736 99.5481421,125.5911 L77.7974624,96.7276007 Z" id="Fill-4" fill="#0F283E"></path>
                </g>
            </g>
        </g>
    </g>
</svg>