<?xml version="1.0" encoding="utf-8"?>
<!-- Generator: Adobe Illustrator 25.2.3, SVG Export Plug-In . SVG Version: 6.00 Build 0)  -->
<svg version="1.1" id="Layer_1" xmlns="http://www.w3.org/2000/svg" xmlns:xlink="http://www.w3.org/1999/xlink" x="0px" y="0px"
	 width="59px" height="60px" viewBox="0 0 59 60" style="enable-background:new 0 0 59 60;" xml:space="preserve">
<style type="text/css">
	.st0{fill-rule:evenodd;clip-rule:evenodd;fill:#FFFFFF;}
</style>
<path class="st0" d="M24,33.9l-0.8,3.8l-0.8-4.9l10.1-7.5l-8.3,8.2C24.1,33.6,24,33.8,24,33.9z M41.8,17.3c-0.2-0.3-0.6-0.3-0.9-0.2
	L14.5,28.5c-0.3,0.1-0.5,0.4-0.5,0.7c0,0.3,0.2,0.6,0.5,0.7l6.3,3.1l1.6,9.3c0.1,0.4,0.3,0.6,0.7,0.7c0.3,0,0.5-0.1,0.7-0.2l5-4.9
	l7.1,5c0.2,0.2,0.5,0.2,0.8,0.1c0.3-0.1,0.4-0.3,0.5-0.6L42,18C42,17.7,42,17.5,41.8,17.3z"/>
<g>
	<path class="st0" d="M29.5,2.1C22.1,2.1,15.2,5,10,10.2S2,22.4,2,29.8s2.9,14.4,8,19.6c5.2,5.2,12.1,8.1,19.4,8.1
		s14.2-2.9,19.4-8.1s8-12.2,8-19.6s-2.9-14.4-8-19.6S36.8,2.1,29.5,2.1z M29.5,59.6c-4,0-7.8-0.8-11.5-2.3c-3.5-1.5-6.7-3.6-9.4-6.4
		c-2.7-2.7-4.8-5.9-6.3-9.5S0,33.9,0,29.8c0-4,0.8-7.9,2.3-11.6c1.5-3.5,3.6-6.7,6.3-9.5C11.3,6,14.5,3.9,18,2.4
		c3.6-1.6,7.5-2.3,11.5-2.3S37.3,0.9,41,2.4c3.5,1.5,6.7,3.6,9.4,6.4c2.7,2.7,4.8,5.9,6.3,9.5C58.2,22,59,25.9,59,29.9
		s-0.8,7.9-2.3,11.6c-1.5,3.5-3.6,6.7-6.3,9.5c-2.7,2.7-5.9,4.9-9.4,6.4C37.3,58.8,33.4,59.6,29.5,59.6z"/>
</g>
</svg>
