<?xml version="1.0" encoding="utf-8"?>
<!-- Generator: Adobe Illustrator 25.2.3, SVG Export Plug-In . SVG Version: 6.00 Build 0)  -->
<svg version="1.1" id="Layer_1" xmlns="http://www.w3.org/2000/svg" xmlns:xlink="http://www.w3.org/1999/xlink" x="0px" y="0px"
	 width="60px" height="60px" viewBox="0 0 60 60" style="enable-background:new 0 0 60 60;" xml:space="preserve">
<style type="text/css">
	.st0{fill-rule:evenodd;clip-rule:evenodd;fill:#FFFFFF;}
</style>
<g>
	<path class="st0" d="M30,2.1c-7.5,0-14.5,2.9-19.8,8.2S2,22.6,2,30s2.9,14.5,8.2,19.8S22.5,58,30,58s14.5-2.9,19.8-8.2
		S58,37.5,58,30s-3-14.4-8.3-19.7S37.4,2.1,30,2.1z M30,60c-4,0-8-0.8-11.7-2.4c-3.6-1.5-6.8-3.7-9.5-6.4c-2.8-2.8-4.9-6-6.4-9.5
		C0.8,38,0,34.1,0,30s0.8-8,2.4-11.7c1.5-3.6,3.7-6.8,6.4-9.5c2.8-2.8,6-4.9,9.5-6.4C22,0.9,25.9,0.1,30,0.1s8,0.8,11.7,2.4
		c3.6,1.5,6.8,3.7,9.5,6.4c2.8,2.8,4.9,6,6.4,9.5C59.2,22.1,60,26,60,30.1s-0.8,8-2.4,11.7c-1.5,3.6-3.7,6.8-6.4,9.5
		c-2.8,2.8-6,4.9-9.5,6.4C37.9,59.2,34,60,30,60z"/>
</g>
<path class="st0" d="M45,21.7c-1.1,0.5-2.2,0.8-3.4,0.9c1.2-0.7,2.2-1.8,2.6-3.2c-1.1,0.7-2.4,1.1-3.8,1.4c-1.1-1.1-2.6-1.8-4.3-1.8
	c-3.3,0-5.9,2.6-5.9,5.8c0,0.5,0,0.9,0.1,1.3C25.4,25.9,21,23.6,18,20c-0.5,0.9-0.8,1.9-0.8,2.9c0,2,1.1,3.8,2.6,4.8
	c-1,0-1.9-0.3-2.7-0.7v0.1c0,2.8,2.1,5.2,4.8,5.7c-0.5,0.1-1,0.2-1.6,0.2c-0.4,0-0.8,0-1.1-0.1c0.8,2.3,3,4,5.6,4
	c-2,1.5-4.6,2.5-7.4,2.5c-0.5,0-1,0-1.4-0.1c2.6,1.7,5.8,2.6,9.1,2.6C36.1,42,42,33.2,42,25.5c0-0.3,0-0.5,0-0.8
	C43.2,23.9,44.2,22.9,45,21.7z"/>
</svg>
