<?xml version="1.0" encoding="utf-8"?>
<!-- Generator: Adobe Illustrator 25.2.3, SVG Export Plug-In . SVG Version: 6.00 Build 0)  -->
<svg version="1.0" id="Layer_1" xmlns="http://www.w3.org/2000/svg" xmlns:xlink="http://www.w3.org/1999/xlink" x="0px" y="0px"
	 viewBox="0 0 60 60" style="enable-background:new 0 0 60 60;" xml:space="preserve">
<style type="text/css">
	.st0{fill-rule:evenodd;clip-rule:evenodd;fill:#FFFFFF;filter:url(#Adobe_OpacityMaskFilter);}
	.st1{mask:url(#mask0_1_);}
	.st2{fill-rule:evenodd;clip-rule:evenodd;fill:#FFFFFF;}
</style>
<defs>
	<filter id="Adobe_OpacityMaskFilter" filterUnits="userSpaceOnUse" x="0" y="0.1" width="59.9" height="59.9">
		<feColorMatrix  type="matrix" values="1 0 0 0 0  0 1 0 0 0  0 0 1 0 0  0 0 0 1 0"/>
	</filter>
</defs>
<mask maskUnits="userSpaceOnUse" x="0" y="0.1" width="59.9" height="59.9" id="mask0_1_">
	<path class="st0" d="M0,0.1h59.9V60H0V0.1z"/>
</mask>
<g class="st1">
	<path class="st2" d="M30,2.1c-7.5,0-14.5,2.9-19.8,8.2C4.9,15.6,2,22.6,2,30s2.9,14.5,8.2,19.8C15.5,55.1,22.5,58,30,58
		c7.5,0,14.5-2.9,19.8-8.2c5.3-5.3,8.2-12.3,8.2-19.8S55,15.6,49.7,10.3C44.4,5,37.4,2.1,30,2.1z M30,60c-4,0-8-0.8-11.7-2.4
		c-3.6-1.5-6.8-3.7-9.5-6.4c-2.8-2.8-4.9-6-6.4-9.5C0.8,38,0,34.1,0,30s0.8-8,2.4-11.7c1.5-3.6,3.7-6.8,6.4-9.5
		c2.8-2.8,6-4.9,9.5-6.4C22,0.9,25.9,0.1,30,0.1s8,0.8,11.7,2.4c3.6,1.5,6.8,3.7,9.5,6.4c2.8,2.8,4.9,6,6.4,9.5
		c1.6,3.7,2.4,7.6,2.4,11.7s-0.8,8-2.4,11.7c-1.5,3.6-3.7,6.8-6.4,9.5c-2.8,2.8-6,4.9-9.5,6.4C37.9,59.2,34,60,30,60z"/>
</g>
<path class="st2" d="M45,21.7c-1.1,0.5-2.2,0.8-3.4,0.9c1.2-0.7,2.2-1.8,2.6-3.2c-1.1,0.7-2.4,1.1-3.8,1.4c-1.1-1.1-2.6-1.8-4.3-1.8
	c-3.3,0-5.9,2.6-5.9,5.8c0,0.5,0,0.9,0.1,1.3c-4.9-0.2-9.3-2.5-12.3-6.1c-0.5,0.9-0.8,1.9-0.8,2.9c0,2,1.1,3.8,2.6,4.8
	c-1,0-1.9-0.3-2.7-0.7v0.1c0,2.8,2.1,5.2,4.8,5.7c-0.5,0.1-1,0.2-1.6,0.2c-0.4,0-0.8,0-1.1-0.1c0.8,2.3,3,4,5.6,4
	c-2,1.5-4.6,2.5-7.4,2.5c-0.5,0-1,0-1.4-0.1c2.6,1.7,5.8,2.6,9.1,2.6C36.1,42,42,33.2,42,25.5c0-0.3,0-0.5,0-0.8
	C43.2,23.9,44.2,22.9,45,21.7z"/>
</svg>
